<svg width="22" height="25" viewBox="0 0 22 25" fill="none" xmlns="http://www.w3.org/2000/svg">
<path d="M1.00121 0.349728C1.12311 0.279999 1.26121 0.243585 1.40164 0.244147C1.54207 0.244709 1.67988 0.282226 1.80121 0.352928L14.35 7.67293L10.4668 11.1673L0.59961 2.28733V1.04413C0.599494 0.903274 0.636569 0.764886 0.707086 0.642955C0.777604 0.521024 0.879064 0.419873 1.00121 0.349728ZM0.59961 4.44093V20.0473L9.27161 12.2441L0.59961 4.44093ZM0.59961 22.2009V23.4441C0.599568 23.5849 0.636668 23.7232 0.707163 23.845C0.777659 23.9669 0.879054 24.0679 1.00111 24.1381C1.12317 24.2082 1.26156 24.2448 1.40233 24.2444C1.54309 24.2439 1.68123 24.2063 1.80281 24.1353L14.35 16.8153L10.4668 13.3209L0.59961 22.2009ZM15.8012 15.9689L21.0012 12.9353C21.1221 12.8649 21.2223 12.764 21.292 12.6427C21.3617 12.5214 21.3984 12.384 21.3984 12.2441C21.3984 12.1042 21.3617 11.9668 21.292 11.8455C21.2223 11.7242 21.1221 11.6234 21.0012 11.5529L15.8012 8.51933L11.662 12.2441L15.8012 15.9689Z" fill="white"/>
</svg>
