<svg width="28" height="22" viewBox="0 0 28 22" fill="none" xmlns="http://www.w3.org/2000/svg">
<path d="M28 10.9133C28 10.8445 28 10.7664 27.9969 10.6758C27.9938 10.4227 27.9875 10.1383 27.9813 9.83516C27.9563 8.96328 27.9125 8.09453 27.8438 7.27578C27.75 6.14766 27.6125 5.20703 27.425 4.50078C27.2271 3.76375 26.8393 3.09156 26.3002 2.5514C25.7612 2.01123 25.0898 1.62202 24.3531 1.42266C23.4688 1.18516 21.7375 1.03828 19.3 0.947656C18.1406 0.903906 16.9 0.875781 15.6594 0.860156C15.225 0.853906 14.8219 0.850781 14.4594 0.847656H13.5406C13.1781 0.850781 12.775 0.853906 12.3406 0.860156C11.1 0.875781 9.85938 0.903906 8.7 0.947656C6.2625 1.04141 4.52812 1.18828 3.64687 1.42266C2.91 1.62153 2.23834 2.01058 1.6992 2.55082C1.16006 3.09106 0.772375 3.76351 0.575 4.50078C0.384375 5.20703 0.25 6.14766 0.15625 7.27578C0.0875 8.09453 0.04375 8.96328 0.01875 9.83516C0.00937495 10.1383 0.00624995 10.4227 0.00312495 10.6758C0.00312495 10.7664 0 10.8445 0 10.9133V11.0883C0 11.157 -4.77303e-08 11.2352 0.00312495 11.3258C0.00624995 11.5789 0.0125 11.8633 0.01875 12.1664C0.04375 13.0383 0.0875 13.907 0.15625 14.7258C0.25 15.8539 0.3875 16.7945 0.575 17.5008C0.975 18.9977 2.15 20.1789 3.64687 20.5789C4.52812 20.8164 6.2625 20.9633 8.7 21.0539C9.85938 21.0977 11.1 21.1258 12.3406 21.1414C12.775 21.1477 13.1781 21.1508 13.5406 21.1539H14.4594C14.8219 21.1508 15.225 21.1477 15.6594 21.1414C16.9 21.1258 18.1406 21.0977 19.3 21.0539C21.7375 20.9602 23.4719 20.8133 24.3531 20.5789C25.85 20.1789 27.025 19.0008 27.425 17.5008C27.6156 16.7945 27.75 15.8539 27.8438 14.7258C27.9125 13.907 27.9563 13.0383 27.9813 12.1664C27.9906 11.8633 27.9938 11.5789 27.9969 11.3258C27.9969 11.2352 28 11.157 28 11.0883V10.9133ZM25.75 11.0758C25.75 11.1414 25.75 11.2133 25.7469 11.2977C25.7438 11.5414 25.7375 11.8102 25.7313 12.1008C25.7094 12.932 25.6656 13.7633 25.6 14.5352C25.5156 15.5414 25.3969 16.3664 25.25 16.9195C25.0562 17.6414 24.4875 18.2133 23.7687 18.4039C23.1125 18.5789 21.4594 18.7195 19.2125 18.8039C18.075 18.8477 16.85 18.8758 15.6281 18.8914C15.2 18.8977 14.8031 18.9008 14.4469 18.9008H13.5531L12.3719 18.8914C11.15 18.8758 9.92813 18.8477 8.7875 18.8039C6.54063 18.7164 4.88437 18.5789 4.23125 18.4039C3.5125 18.2102 2.94375 17.6414 2.75 16.9195C2.60313 16.3664 2.48438 15.5414 2.4 14.5352C2.33438 13.7633 2.29375 12.932 2.26875 12.1008C2.25938 11.8102 2.25625 11.5383 2.25313 11.2977C2.25313 11.2133 2.25 11.1383 2.25 11.0758V10.9258C2.25 10.8602 2.25 10.7883 2.25313 10.7039C2.25625 10.4602 2.2625 10.1914 2.26875 9.90078C2.29063 9.06953 2.33438 8.23828 2.4 7.46641C2.48438 6.46016 2.60313 5.63516 2.75 5.08203C2.94375 4.36016 3.5125 3.78828 4.23125 3.59766C4.8875 3.42266 6.54063 3.28203 8.7875 3.19766C9.925 3.15391 11.15 3.12578 12.3719 3.11016C12.8 3.10391 13.1969 3.10078 13.5531 3.10078H14.4469L15.6281 3.11016C16.85 3.12578 18.0719 3.15391 19.2125 3.19766C21.4594 3.28516 23.1156 3.42266 23.7687 3.59766C24.4875 3.79141 25.0562 4.36016 25.25 5.08203C25.3969 5.63516 25.5156 6.46016 25.6 7.46641C25.6656 8.23828 25.7063 9.06953 25.7313 9.90078C25.7406 10.1914 25.7438 10.4633 25.7469 10.7039C25.7469 10.7883 25.75 10.8633 25.75 10.9258V11.0758ZM11.2188 15.1883L18.4688 10.9695L11.2188 6.81328V15.1883Z" fill="white"/>
</svg>
